<svg width="3166.3" height="1645.2" xmlns="http://www.w3.org/2000/svg" xmlns:xlink="http://www.w3.org/1999/xlink"><defs><symbol viewBox="0 0 48 47" id="arrow-bottom">
<path vector-effect="non-scaling-stroke" d="M0.8,23l23.5,23.5 M24.2,46.5v-46 M47.2,22.5l-23,24" />
</symbol><symbol viewBox="0 0 3166.3 702.7" id="logo">
    <path d="M2.7,2h163v559h201l-140,141H2.7V2z M196.7,2h170l262,700h-170L196.7,2z M768.7,2v404l-163,164V2H768.7z" />
    <path d="M943.7,143c-13,41-21,85-21,129c0,195,104,288,306,288h223l-141,142h-146c-221,0-361-115-361-306
        C803.7,291,858.7,188,943.7,143 M1451.7,2v211l-163,163V143h-345c15-79,86-141,166-141H1451.7z" />
    <rect x="1501.7" y="2" width="163" height="700" />
    <path d="M2056.7,2c80,0,151,62,166,141h-345v233l-163-163V2H2056.7z M2362.7,396c0,191-140,306-361,306h-146l-141-142h223
        c202,0,306-93,306-288c0-44-8-88-21-129C2307.7,188,2362.7,291,2362.7,396" />
    <path d="M2560.7,570l-163-164V2h163V570z M2537.7,702l262-700h170l-262,700H2537.7z M2939.7,702l-140-141h201V2h163v700H2939.7z" />
</symbol><symbol viewBox="0 0 638 129" id="logo-bck">
<path d="M11.9,3.1V126h85.4v-14H28.9V3.1H11.9z M149.9,126L199.4,3.1h-17.2l-40.4,103.4h-0.8L99.6,3.1H82.2L131.6,126
	H149.9z M198.2,64.6c0,37.8,26.3,63.8,60.3,63.8c35.1,0,55-21.6,57.3-53.2l-16.4-0.8c-1.4,22.6-15.6,39.6-41,39.6
	c-25,0-42.9-19.1-42.9-49.3s17.9-49.3,42.9-49.3c25.4,0,39.6,17,41,39.6l16.4-0.8c-2.3-31.6-22.2-53.2-57.3-53.2
	C224.5,0.8,198.2,26.7,198.2,64.6z M329.8,3.1V126h17V3.1H329.8z M383.6,112.2V17h26.5c30,0,46.4,17.7,46.4,47.6
	s-16.4,47.6-46.4,47.6H383.6z M366.7,126h44.5c38.6,0,63-23,63-61.4s-24.4-61.4-63-61.4h-44.5V126z M488.1,3.1V126h17V3.1H488.1z
	 M565.5,3.1L515.4,126H532l14.4-36.1h56l14.8,36.1h17.9L584,3.1H565.5z M573.7,21.9h0.8l22.4,54.6h-45.2L573.7,21.9z" />
</symbol><symbol id="logo-diagonal" viewBox="0 0 119.2 125.9">
<g>
	<polygon points="48.2,0.3 1,126.2 31.6,126.2 78.7,0.3 	" />
	<polygon points="88.5,0.3 41.4,126.2 71.9,126.2 119.1,0.3 	" />
</g>
</symbol><symbol viewBox="0 0 626.4 590.6" id="logo-hero">
	<g>
		<path d="M246.8,15.2c25.4,0,39.6,17,40.9,39.6l16.4-0.8c-2.3-31.6-22.2-53.2-57.3-53.2c-33.9,0-60.3,25.9-60.3,63.8
			c0,37.8,26.3,63.8,60.3,63.8c35.1,0,55-21.6,57.3-53.2l-16.4-0.8c-1.4,22.6-15.6,39.6-40.9,39.6c-25,0-42.9-19.1-42.9-49.3
			C203.9,34.3,221.9,15.2,246.8,15.2z" />
	</g>
	<g>
		<polygon points="170.6,3.1 130.3,106.5 129.5,106.5 87.9,3.1 70.6,3.1 119.9,126 138.3,126 187.8,3.1 		" />
	</g>
	<g>
		<polygon points="17.2,3.1 0.3,3.1 0.3,126 85.7,126 85.7,112 17.2,112 		" />
	</g>
	<g>
		<path d="M398.5,17H372v95.2h26.5c30,0,46.4-17.7,46.4-47.6C444.9,34.7,428.6,17,398.5,17z" />
		<path d="M399.5,3.1H355V126h44.5c38.6,0,63-23,63-61.4C462.5,26.2,438.1,3.1,399.5,3.1z M398.5,112.2H372V17h26.5
			c30,0,46.4,17.7,46.4,47.6C444.9,94.4,428.6,112.2,398.5,112.2z" />
	</g>
	<g>
		<rect x="318.2" y="3.1" width="17" height="122.9" />
	</g>
	<g>
		<polygon fill="none" points="562,21.9 540,76.5 585.3,76.5 562.8,21.9 		" />
		<path d="M572.4,3.1h-18.5L503.7,126h16.6l14.4-36.1h56l14.8,36.1h17.9L572.4,3.1z M540,76.5l22-54.6h0.8l22.4,54.6
			H540z" />
	</g>
	<g>
		<rect x="476.4" y="3.1" width="17" height="122.9" />
	</g>
</symbol></defs></svg>